<svg xmlns="http://www.w3.org/2000/svg" width="40" height="40" fill="none" viewBox="0 0 40 40">
  <circle cx="20" cy="20" r="20" fill="#F9818E"/>
  <path fill="#fff" fill-rule="evenodd" d="M14.944 15h10.113C27.79 15 30 17.03 30 19.885c0 2.857-2.21 4.936-4.943 4.936H14.944c-2.732 0-4.944-2.08-4.944-4.936S12.212 15 14.944 15Zm2.322 5.625a.245.245 0 0 0 .234-.237V19.4c0-.12-.106-.204-.231-.204h-1.555v-1.552a.245.245 0 0 0-.236-.233h-.989c-.12 0-.203.106-.203.23v1.555h-1.584c-.116 0-.202.096-.202.213v.957c0 .12.09.259.217.259h1.569v1.583c0 .117.095.203.213.203h.956c.12 0 .26-.091.26-.217v-1.569h1.551Zm5.58.156a.862.862 0 0 1-.868-.855c0-.472.39-.856.869-.856.481 0 .87.384.87.856a.863.863 0 0 1-.87.855Zm1.032 1.014a.86.86 0 0 0 .868.852.86.86 0 0 0 .87-.852.86.86 0 0 0-.87-.855.86.86 0 0 0-.868.855Zm.868-2.884a.862.862 0 0 1-.868-.854c0-.472.389-.856.868-.856.482 0 .87.384.87.856a.862.862 0 0 1-.87.854Zm1.032 1.015c0 .471.389.855.868.855s.868-.384.868-.855a.863.863 0 0 0-.868-.856.863.863 0 0 0-.868.856Z" clip-rule="evenodd"/>
</svg>
