<svg xmlns="http://www.w3.org/2000/svg" width="80" height="80" fill="none" viewBox="0 0 80 80">
  <circle cx="40" cy="40" r="40" fill="#F9818E"/>
  <path fill="#E96170" d="M48.464 79.167c.768-.15 1.53-.322 2.288-.516a40.05 40.05 0 0 0 3.794-1.264 40.053 40.053 0 0 0 3.657-1.63 40.068 40.068 0 0 0 12.463-9.9A40.028 40.028 0 0 0 78.3 51.89c.338-1.117.627-2.249.867-3.391L55.374 24.698a21.6 21.6 0 0 0-15.332-6.365 21.629 21.629 0 0 0-15.344 6.365c-8.486 8.489-8.486 22.205 0 30.694l23.766 23.775Z"/>
  <path fill="#fff" fill-rule="evenodd" d="M55.314 24.684a21.58 21.58 0 0 0-15.31-6.35 21.595 21.595 0 0 0-15.318 6.35c-8.47 8.471-8.47 22.158 0 30.63 8.47 8.47 22.157 8.47 30.628 0 8.47-8.472 8.47-22.159 0-30.63Zm-6.318 8.993c.25-.195.556-.316.871-.345.057-.003.113-.003.17 0 1.387.02 2.078 2.197.956 3.013L37.667 46.34c-.634.473-1.613.403-2.173-.156l-6.663-6.663c-1.275-1.224 1.132-3.63 2.355-2.356l5.642 5.642 12.168-9.13Z" clip-rule="evenodd"/>
</svg>
