<svg xmlns="http://www.w3.org/2000/svg" width="40" height="40" fill="none" viewBox="0 0 40 40">
  <circle cx="20" cy="20" r="20" fill="#483EFF"/>
  <path fill="#fff" fill-rule="evenodd" d="M13.334 13h13.332A3.333 3.333 0 0 1 30 16.333v7.193a3.446 3.446 0 0 1-2.14 3.24 3.2 3.2 0 0 1-3.56-.8L21.48 23h-2.96l-2.82 2.966a3.207 3.207 0 0 1-3.56.8 3.446 3.446 0 0 1-2.14-3.24v-7.193A3.333 3.333 0 0 1 13.334 13ZM16 19h1.333a.667.667 0 0 0 0-1.334H16v-1.333a.667.667 0 1 0-1.333 0v1.334h-1.333a.667.667 0 1 0 0 1.333h1.333v1.333a.667.667 0 0 0 1.333 0V19Zm8.666 2a2.667 2.667 0 1 1 0-5.334 2.667 2.667 0 0 1 0 5.334Zm0-1.334a1.333 1.333 0 1 0 0-2.666 1.333 1.333 0 0 0 0 2.666Z" clip-rule="evenodd"/>
</svg>
