<svg width="274" height="225" viewBox="0 0 274 225" fill="none" xmlns="http://www.w3.org/2000/svg">
  <rect x="0" y="0" width="200%" height="225" fill="#6259FF"/>
  <path fill-rule="evenodd" clip-rule="evenodd" d="M-34.6921 200.101C3.24693 289.538 168.767 342.017 211.961 269.52C255.155 197.023 145.862 183.867 107.226 108.951C68.5909 34.0349 38.5692 -12.7231 -17.2556 4.34429C-73.0804 21.4116 -72.6312 110.664 -34.6921 200.101Z" fill="#6259FF"/>
  <path fill-rule="evenodd" clip-rule="evenodd" d="M233.095 258.153C293.774 229.875 325.934 114.627 274.97 86.6246C224.005 58.6223 217.573 134.204 166.911 162.612C116.249 191.02 84.771 212.819 97.867 250.853C110.963 288.887 172.416 286.431 233.095 258.153Z" fill="#F9818E"/>
  <path d="M165.305 126.097L175.912 115.291" stroke="white" stroke-width="5" stroke-linecap="round" stroke-linejoin="bevel"/>
  <path d="M209.461 131.581L196.955 121.078" stroke="white" stroke-width="5" stroke-linecap="round" stroke-linejoin="bevel"/>
  <path d="M187.56 145.991L180.652 160.789" stroke="white" stroke-width="5" stroke-linecap="round" stroke-linejoin="bevel"/>
  <path d="M0.304688 203.891C37.3078 203.891 67.3047 173.894 67.3047 136.891C67.3047 99.8876 37.3078 69.8907 0.304688 69.8907C-36.6984 69.8907 -66.6953 99.8876 -66.6953 136.891C-66.6953 173.894 -36.6984 203.891 0.304688 203.891Z" fill="#FFAF7E"/>
</svg>
